# Blender v2.79 (sub 0) OBJ File: ''
# www.blender.org
mtllib number.mtl
o Text_CUText
v 0.202000 -0.000000 0.100000
v 0.202000 0.682000 0.100000
v 0.300000 0.682000 0.100000
v 0.300000 -0.000000 0.100000
v 0.202000 0.000000 -0.100000
v 0.202000 0.682000 -0.100000
v 0.300000 0.682000 -0.100000
v 0.300000 0.000000 -0.100000
v 0.202000 0.000000 -0.100000
v 0.202000 -0.000000 0.100000
v 0.202000 0.682000 -0.100000
v 0.202000 0.682000 0.100000
v 0.300000 0.682000 -0.100000
v 0.300000 0.682000 0.100000
v 0.300000 0.000000 -0.100000
v 0.300000 -0.000000 0.100000
vn 0.0000 -0.0000 1.0000
vn 0.0000 0.0000 -1.0000
vn -0.7071 0.7071 0.0000
vn -0.7071 -0.7071 0.0000
vn 0.7071 0.7071 0.0000
vn 0.7071 -0.7071 0.0000
usemtl (null)
s off
f 1//1 3//1 2//1
f 1//1 4//1 3//1
f 7//2 5//2 6//2
f 8//2 5//2 7//2
s 1
f 12//3 9//4 10//4
f 14//5 11//3 12//3
f 16//6 13//5 14//5
f 10//4 15//6 16//6
f 12//3 11//3 9//4
f 14//5 13//5 11//3
f 16//6 15//6 13//5
f 10//4 9//4 15//6
