# Blender v2.79 (sub 0) OBJ File: ''
# www.blender.org
mtllib number.mtl
o Text_CUtext.001
v 0.195329 0.690561 0.100000
v 0.238931 0.689215 0.100000
v 0.209000 0.691000 0.100000
v 0.181796 0.689241 0.100000
v 0.168375 0.687031 0.100000
v 0.267116 0.683972 0.100000
v 0.155037 0.683926 0.100000
v 0.293391 0.675438 0.100000
v 0.141755 0.679918 0.100000
v 0.128500 0.675000 0.100000
v 0.317593 0.663778 0.100000
v 0.115245 0.669166 0.100000
v 0.101963 0.662407 0.100000
v 0.339558 0.649160 0.100000
v 0.088625 0.654719 0.100000
v 0.075204 0.646093 0.100000
v 0.359125 0.631750 0.100000
v 0.061671 0.636522 0.100000
v 0.048000 0.626000 0.100000
v 0.376129 0.611715 0.100000
v 0.048000 0.503000 0.100000
v 0.061648 0.519515 0.100000
v 0.075102 0.534120 0.100000
v 0.088375 0.546906 0.100000
v 0.101481 0.557963 0.100000
v 0.114435 0.567381 0.100000
v 0.127250 0.575250 0.100000
v 0.139940 0.581661 0.100000
v 0.152519 0.586704 0.100000
v 0.165000 0.590469 0.100000
v 0.177398 0.593046 0.100000
v 0.189727 0.594527 0.100000
v 0.202000 0.595000 0.100000
v 0.390407 0.589222 0.100000
v 0.218377 0.593914 0.100000
v 0.233931 0.590727 0.100000
v 0.248547 0.585547 0.100000
v 0.401797 0.564438 0.100000
v 0.262111 0.578481 0.100000
v 0.274509 0.569638 0.100000
v 0.285625 0.559125 0.100000
v 0.410134 0.537528 0.100000
v 0.295345 0.547049 0.100000
v 0.303556 0.533518 0.100000
v 0.415256 0.508660 0.100000
v 0.310141 0.518641 0.100000
v 0.314986 0.502523 0.100000
v 0.417000 0.478000 0.100000
v 0.317977 0.485274 0.100000
v 0.319000 0.467000 0.100000
v 0.415731 0.450564 0.100000
v 0.318667 0.453204 0.100000
v 0.317667 0.440213 0.100000
v 0.411852 0.423509 0.100000
v 0.316000 0.427875 0.100000
v 0.313667 0.416037 0.100000
v 0.405250 0.396469 0.100000
v 0.310667 0.404546 0.100000
v 0.307000 0.393250 0.100000
v 0.395815 0.369074 0.100000
v 0.302667 0.381995 0.100000
v 0.297667 0.370630 0.100000
v 0.292000 0.359000 0.100000
v 0.383435 0.340957 0.100000
v 0.285667 0.346954 0.100000
v 0.278667 0.334338 0.100000
v 0.368000 0.311750 0.100000
v 0.271000 0.321000 0.100000
v 0.255585 0.295763 0.100000
v 0.349398 0.281085 0.100000
v 0.238514 0.269685 0.100000
v 0.327519 0.248593 0.100000
v 0.220047 0.242969 0.100000
v 0.302250 0.213906 0.100000
v 0.200444 0.215815 0.100000
v 0.179967 0.188425 0.100000
v 0.273481 0.176657 0.100000
v 0.158875 0.161000 0.100000
v 0.241102 0.136478 0.100000
v 0.137429 0.133742 0.100000
v 0.205000 0.093000 0.100000
v 0.115889 0.106852 0.100000
v 0.094516 0.080531 0.100000
v 0.466000 0.093000 0.100000
v 0.466000 -0.000000 0.100000
v 0.073569 0.054981 0.100000
v 0.053311 0.030404 0.100000
v 0.034000 0.007000 0.100000
v 0.034000 -0.000000 0.100000
v 0.238931 0.689215 -0.100000
v 0.195329 0.690561 -0.100000
v 0.209000 0.691000 -0.100000
v 0.181796 0.689241 -0.100000
v 0.168375 0.687031 -0.100000
v 0.267116 0.683972 -0.100000
v 0.155037 0.683926 -0.100000
v 0.293391 0.675438 -0.100000
v 0.141755 0.679918 -0.100000
v 0.128500 0.675000 -0.100000
v 0.317593 0.663778 -0.100000
v 0.115245 0.669166 -0.100000
v 0.101963 0.662407 -0.100000
v 0.339558 0.649160 -0.100000
v 0.088625 0.654719 -0.100000
v 0.075204 0.646093 -0.100000
v 0.359125 0.631750 -0.100000
v 0.061671 0.636522 -0.100000
v 0.048000 0.626000 -0.100000
v 0.376129 0.611715 -0.100000
v 0.061648 0.519515 -0.100000
v 0.048000 0.503000 -0.100000
v 0.075102 0.534120 -0.100000
v 0.088375 0.546906 -0.100000
v 0.101481 0.557963 -0.100000
v 0.114435 0.567381 -0.100000
v 0.127250 0.575250 -0.100000
v 0.139940 0.581661 -0.100000
v 0.152519 0.586704 -0.100000
v 0.165000 0.590469 -0.100000
v 0.177398 0.593046 -0.100000
v 0.189727 0.594527 -0.100000
v 0.202000 0.595000 -0.100000
v 0.390407 0.589222 -0.100000
v 0.218377 0.593914 -0.100000
v 0.233931 0.590727 -0.100000
v 0.248547 0.585547 -0.100000
v 0.401797 0.564438 -0.100000
v 0.262111 0.578481 -0.100000
v 0.274509 0.569638 -0.100000
v 0.285625 0.559125 -0.100000
v 0.410134 0.537528 -0.100000
v 0.295345 0.547049 -0.100000
v 0.303556 0.533518 -0.100000
v 0.415256 0.508660 -0.100000
v 0.310141 0.518641 -0.100000
v 0.314986 0.502523 -0.100000
v 0.417000 0.478000 -0.100000
v 0.317977 0.485274 -0.100000
v 0.319000 0.467000 -0.100000
v 0.415731 0.450564 -0.100000
v 0.318667 0.453204 -0.100000
v 0.317667 0.440213 -0.100000
v 0.411852 0.423509 -0.100000
v 0.316000 0.427875 -0.100000
v 0.313667 0.416037 -0.100000
v 0.405250 0.396469 -0.100000
v 0.310667 0.404546 -0.100000
v 0.307000 0.393250 -0.100000
v 0.395815 0.369074 -0.100000
v 0.302667 0.381995 -0.100000
v 0.297667 0.370630 -0.100000
v 0.292000 0.359000 -0.100000
v 0.383435 0.340957 -0.100000
v 0.285667 0.346954 -0.100000
v 0.278667 0.334338 -0.100000
v 0.368000 0.311750 -0.100000
v 0.271000 0.321000 -0.100000
v 0.255585 0.295763 -0.100000
v 0.349398 0.281085 -0.100000
v 0.238514 0.269685 -0.100000
v 0.327519 0.248593 -0.100000
v 0.220047 0.242969 -0.100000
v 0.302250 0.213906 -0.100000
v 0.200444 0.215815 -0.100000
v 0.179967 0.188425 -0.100000
v 0.273481 0.176657 -0.100000
v 0.158875 0.161000 -0.100000
v 0.241102 0.136478 -0.100000
v 0.137429 0.133742 -0.100000
v 0.205000 0.093000 -0.100000
v 0.115889 0.106852 -0.100000
v 0.094516 0.080531 -0.100000
v 0.466000 0.093000 -0.100000
v 0.466000 -0.000000 -0.100000
v 0.073569 0.054981 -0.100000
v 0.053311 0.030404 -0.100000
v 0.034000 0.007000 -0.100000
v 0.034000 -0.000000 -0.100000
v 0.034000 0.007000 0.100000
v 0.034000 -0.000000 -0.100000
v 0.034000 -0.000000 0.100000
v 0.053311 0.030404 0.100000
v 0.034000 0.007000 -0.100000
v 0.073569 0.054981 0.100000
v 0.053311 0.030404 -0.100000
v 0.094516 0.080531 0.100000
v 0.073569 0.054981 -0.100000
v 0.115889 0.106852 0.100000
v 0.094516 0.080531 -0.100000
v 0.137429 0.133742 0.100000
v 0.115889 0.106852 -0.100000
v 0.158875 0.161000 0.100000
v 0.137429 0.133742 -0.100000
v 0.179967 0.188425 0.100000
v 0.158875 0.161000 -0.100000
v 0.200444 0.215815 0.100000
v 0.179967 0.188425 -0.100000
v 0.220047 0.242969 0.100000
v 0.200444 0.215815 -0.100000
v 0.238514 0.269685 0.100000
v 0.220047 0.242969 -0.100000
v 0.255585 0.295763 0.100000
v 0.238514 0.269685 -0.100000
v 0.271000 0.321000 0.100000
v 0.255585 0.295763 -0.100000
v 0.278667 0.334338 0.100000
v 0.271000 0.321000 -0.100000
v 0.285667 0.346954 0.100000
v 0.278667 0.334338 -0.100000
v 0.292000 0.359000 0.100000
v 0.285667 0.346954 -0.100000
v 0.297667 0.370630 0.100000
v 0.292000 0.359000 -0.100000
v 0.302667 0.381995 0.100000
v 0.297667 0.370630 -0.100000
v 0.307000 0.393250 0.100000
v 0.302667 0.381995 -0.100000
v 0.310667 0.404546 0.100000
v 0.307000 0.393250 -0.100000
v 0.313667 0.416037 0.100000
v 0.310667 0.404546 -0.100000
v 0.316000 0.427875 0.100000
v 0.313667 0.416037 -0.100000
v 0.317667 0.440213 0.100000
v 0.316000 0.427875 -0.100000
v 0.318667 0.453204 0.100000
v 0.317667 0.440213 -0.100000
v 0.319000 0.467000 0.100000
v 0.318667 0.453204 -0.100000
v 0.317977 0.485274 0.100000
v 0.319000 0.467000 -0.100000
v 0.314986 0.502523 0.100000
v 0.317977 0.485274 -0.100000
v 0.310141 0.518641 0.100000
v 0.314986 0.502523 -0.100000
v 0.303556 0.533518 0.100000
v 0.310141 0.518641 -0.100000
v 0.295345 0.547049 0.100000
v 0.303556 0.533518 -0.100000
v 0.285625 0.559125 0.100000
v 0.295345 0.547049 -0.100000
v 0.274509 0.569638 0.100000
v 0.285625 0.559125 -0.100000
v 0.262111 0.578481 0.100000
v 0.274509 0.569638 -0.100000
v 0.248547 0.585547 0.100000
v 0.262111 0.578481 -0.100000
v 0.233931 0.590727 0.100000
v 0.248547 0.585547 -0.100000
v 0.218377 0.593914 0.100000
v 0.233931 0.590727 -0.100000
v 0.202000 0.595000 0.100000
v 0.218377 0.593914 -0.100000
v 0.189727 0.594527 0.100000
v 0.202000 0.595000 -0.100000
v 0.177398 0.593046 0.100000
v 0.189727 0.594527 -0.100000
v 0.165000 0.590469 0.100000
v 0.177398 0.593046 -0.100000
v 0.152519 0.586704 0.100000
v 0.165000 0.590469 -0.100000
v 0.139940 0.581661 0.100000
v 0.152519 0.586704 -0.100000
v 0.127250 0.575250 0.100000
v 0.139940 0.581661 -0.100000
v 0.114435 0.567381 0.100000
v 0.127250 0.575250 -0.100000
v 0.101481 0.557963 0.100000
v 0.114435 0.567381 -0.100000
v 0.088375 0.546906 0.100000
v 0.101481 0.557963 -0.100000
v 0.075102 0.534120 0.100000
v 0.088375 0.546906 -0.100000
v 0.061648 0.519515 0.100000
v 0.075102 0.534120 -0.100000
v 0.048000 0.503000 0.100000
v 0.061648 0.519515 -0.100000
v 0.048000 0.626000 0.100000
v 0.048000 0.503000 -0.100000
v 0.061671 0.636522 0.100000
v 0.048000 0.626000 -0.100000
v 0.075204 0.646093 0.100000
v 0.061671 0.636522 -0.100000
v 0.088625 0.654719 0.100000
v 0.075204 0.646093 -0.100000
v 0.101963 0.662407 0.100000
v 0.088625 0.654719 -0.100000
v 0.115245 0.669166 0.100000
v 0.101963 0.662407 -0.100000
v 0.128500 0.675000 0.100000
v 0.115245 0.669166 -0.100000
v 0.141755 0.679918 0.100000
v 0.128500 0.675000 -0.100000
v 0.155037 0.683926 0.100000
v 0.141755 0.679918 -0.100000
v 0.168375 0.687031 0.100000
v 0.155037 0.683926 -0.100000
v 0.181796 0.689241 0.100000
v 0.168375 0.687031 -0.100000
v 0.195329 0.690561 0.100000
v 0.181796 0.689241 -0.100000
v 0.209000 0.691000 0.100000
v 0.195329 0.690561 -0.100000
v 0.238931 0.689215 0.100000
v 0.209000 0.691000 -0.100000
v 0.267116 0.683972 0.100000
v 0.238931 0.689215 -0.100000
v 0.293391 0.675438 0.100000
v 0.267116 0.683972 -0.100000
v 0.317593 0.663778 0.100000
v 0.293391 0.675438 -0.100000
v 0.339558 0.649160 0.100000
v 0.317593 0.663778 -0.100000
v 0.359125 0.631750 0.100000
v 0.339558 0.649160 -0.100000
v 0.376129 0.611715 0.100000
v 0.359125 0.631750 -0.100000
v 0.390407 0.589222 0.100000
v 0.376129 0.611715 -0.100000
v 0.401797 0.564438 0.100000
v 0.390407 0.589222 -0.100000
v 0.410134 0.537528 0.100000
v 0.401797 0.564438 -0.100000
v 0.415256 0.508660 0.100000
v 0.410134 0.537528 -0.100000
v 0.417000 0.478000 0.100000
v 0.415256 0.508660 -0.100000
v 0.415731 0.450564 0.100000
v 0.417000 0.478000 -0.100000
v 0.411852 0.423509 0.100000
v 0.415731 0.450564 -0.100000
v 0.405250 0.396469 0.100000
v 0.411852 0.423509 -0.100000
v 0.395815 0.369074 0.100000
v 0.405250 0.396469 -0.100000
v 0.383435 0.340957 0.100000
v 0.395815 0.369074 -0.100000
v 0.368000 0.311750 0.100000
v 0.383435 0.340957 -0.100000
v 0.349398 0.281085 0.100000
v 0.368000 0.311750 -0.100000
v 0.327519 0.248593 0.100000
v 0.349398 0.281085 -0.100000
v 0.302250 0.213906 0.100000
v 0.327519 0.248593 -0.100000
v 0.273481 0.176657 0.100000
v 0.302250 0.213906 -0.100000
v 0.241102 0.136478 0.100000
v 0.273481 0.176657 -0.100000
v 0.205000 0.093000 0.100000
v 0.241102 0.136478 -0.100000
v 0.466000 0.093000 0.100000
v 0.205000 0.093000 -0.100000
v 0.466000 -0.000000 0.100000
v 0.466000 0.093000 -0.100000
v 0.466000 -0.000000 -0.100000
vn 0.0000 0.0000 1.0000
vn 0.0000 0.0000 -1.0000
vn -0.9411 0.3381 0.0000
vn -0.7071 -0.7071 0.0000
vn -0.7715 0.6362 0.0000
vn -0.7725 0.6350 0.0000
vn -0.7748 0.6322 0.0000
vn -0.7784 0.6278 0.0000
vn -0.7832 0.6218 0.0000
vn -0.7893 0.6140 0.0000
vn -0.7968 0.6042 0.0000
vn -0.8059 0.5921 0.0000
vn -0.8167 0.5770 0.0000
vn -0.8297 0.5582 0.0000
vn -0.8451 0.5345 0.0000
vn -0.8603 0.5099 0.0000
vn -0.8707 0.4918 0.0000
vn -0.8798 0.4753 0.0000
vn -0.8921 0.4517 0.0000
vn -0.9073 0.4204 0.0000
vn -0.9245 0.3811 0.0000
vn -0.9073 0.4205 0.0000
vn -0.9425 0.3341 0.0000
vn -0.9598 0.2808 0.0000
vn -0.9748 0.2231 0.0000
vn -0.9865 0.1637 0.0000
vn -0.9944 0.1054 0.0000
vn -0.9987 0.0505 0.0000
vn -0.9999 -0.0159 0.0000
vn -0.9935 -0.1136 0.0000
vn -0.9732 -0.2298 0.0000
vn -0.9379 -0.3470 0.0000
vn -0.8865 -0.4627 0.0000
vn -0.8187 -0.5742 0.0000
vn -0.7348 -0.6783 0.0000
vn -0.6354 -0.7722 0.0000
vn -0.5226 -0.8526 0.0000
vn -0.3990 -0.9170 0.0000
vn -0.2680 -0.9634 0.0000
vn -0.1338 -0.9910 0.0000
vn -0.0138 -0.9999 -0.0000
vn 0.0790 -0.9969 -0.0000
vn 0.1615 -0.9869 -0.0000
vn 0.2464 -0.9692 0.0000
vn 0.3308 -0.9437 0.0000
vn 0.4119 -0.9112 -0.0000
vn 0.4875 -0.8731 -0.0000
vn 0.5561 -0.8311 -0.0000
vn 0.6168 -0.7871 -0.0000
vn 0.6697 -0.7427 -0.0000
vn 0.7150 -0.6992 -0.0000
vn 0.7534 -0.6575 0.0000
vn -0.3385 -0.9410 -0.0000
vn -0.8972 0.4416 0.0000
vn -0.5938 0.8046 0.0000
vn -0.5592 0.8290 -0.0000
vn -0.5202 0.8541 -0.0000
vn -0.4766 0.8791 0.0000
vn -0.4284 0.9036 0.0000
vn -0.3755 0.9268 -0.0000
vn -0.3185 0.9479 0.0000
vn -0.2579 0.9662 0.0000
vn -0.1947 0.9809 0.0000
vn -0.1298 0.9915 -0.0000
vn -0.0646 0.9979 0.0000
vn 0.0137 0.9999 0.0000
vn 0.1214 0.9926 -0.0000
vn 0.2464 0.9692 -0.0000
vn 0.3723 0.9281 0.0000
vn 0.4952 0.8688 -0.0000
vn 0.6109 0.7917 -0.0000
vn 0.7153 0.6988 -0.0000
vn 0.8053 0.5929 -0.0000
vn 0.8784 0.4778 0.0000
vn 0.9339 0.3575 0.0000
vn 0.9718 0.2358 0.0000
vn 0.9933 0.1159 0.0000
vn 1.0000 0.0053 -0.0000
vn 0.9956 -0.0942 -0.0000
vn 0.9818 -0.1898 -0.0000
vn 0.9595 -0.2817 0.0000
vn 0.9312 -0.3646 0.0000
vn 0.9002 -0.4354 0.0000
vn 0.8699 -0.4932 0.0000
vn 0.8425 -0.5387 -0.0000
vn 0.8190 -0.5738 -0.0000
vn 0.7999 -0.6001 -0.0000
vn 0.7851 -0.6194 0.0000
vn 0.7740 -0.6332 -0.0000
vn 0.9052 0.4250 -0.0000
vn 0.7071 0.7071 -0.0000
vn 0.7071 -0.7071 -0.0000
usemtl Material.002
s off
f 1//1 2//1 3//1
f 4//1 2//1 1//1
f 5//1 2//1 4//1
f 5//1 6//1 2//1
f 7//1 6//1 5//1
f 7//1 8//1 6//1
f 9//1 8//1 7//1
f 10//1 8//1 9//1
f 10//1 11//1 8//1
f 12//1 11//1 10//1
f 13//1 11//1 12//1
f 13//1 14//1 11//1
f 15//1 14//1 13//1
f 16//1 14//1 15//1
f 16//1 17//1 14//1
f 18//1 17//1 16//1
f 19//1 17//1 18//1
f 19//1 20//1 17//1
f 21//1 22//1 19//1
f 22//1 23//1 19//1
f 23//1 24//1 19//1
f 24//1 25//1 19//1
f 25//1 26//1 19//1
f 26//1 27//1 19//1
f 27//1 28//1 19//1
f 28//1 29//1 19//1
f 29//1 30//1 19//1
f 30//1 31//1 19//1
f 31//1 32//1 19//1
f 32//1 20//1 19//1
f 32//1 33//1 20//1
f 33//1 34//1 20//1
f 35//1 34//1 33//1
f 36//1 34//1 35//1
f 37//1 34//1 36//1
f 37//1 38//1 34//1
f 39//1 38//1 37//1
f 40//1 38//1 39//1
f 41//1 38//1 40//1
f 41//1 42//1 38//1
f 43//1 42//1 41//1
f 44//1 42//1 43//1
f 44//1 45//1 42//1
f 46//1 45//1 44//1
f 47//1 45//1 46//1
f 47//1 48//1 45//1
f 49//1 48//1 47//1
f 50//1 48//1 49//1
f 50//1 51//1 48//1
f 52//1 51//1 50//1
f 53//1 51//1 52//1
f 53//1 54//1 51//1
f 55//1 54//1 53//1
f 56//1 54//1 55//1
f 56//1 57//1 54//1
f 58//1 57//1 56//1
f 59//1 57//1 58//1
f 59//1 60//1 57//1
f 61//1 60//1 59//1
f 62//1 60//1 61//1
f 63//1 60//1 62//1
f 63//1 64//1 60//1
f 65//1 64//1 63//1
f 66//1 64//1 65//1
f 66//1 67//1 64//1
f 68//1 67//1 66//1
f 69//1 67//1 68//1
f 69//1 70//1 67//1
f 71//1 70//1 69//1
f 71//1 72//1 70//1
f 73//1 72//1 71//1
f 73//1 74//1 72//1
f 75//1 74//1 73//1
f 76//1 74//1 75//1
f 76//1 77//1 74//1
f 78//1 77//1 76//1
f 78//1 79//1 77//1
f 80//1 79//1 78//1
f 80//1 81//1 79//1
f 82//1 81//1 80//1
f 83//1 81//1 82//1
f 83//1 84//1 81//1
f 83//1 85//1 84//1
f 86//1 85//1 83//1
f 87//1 85//1 86//1
f 88//1 85//1 87//1
f 89//1 85//1 88//1
f 90//2 91//2 92//2
f 90//2 93//2 91//2
f 90//2 94//2 93//2
f 95//2 94//2 90//2
f 95//2 96//2 94//2
f 97//2 96//2 95//2
f 97//2 98//2 96//2
f 97//2 99//2 98//2
f 100//2 99//2 97//2
f 100//2 101//2 99//2
f 100//2 102//2 101//2
f 103//2 102//2 100//2
f 103//2 104//2 102//2
f 103//2 105//2 104//2
f 106//2 105//2 103//2
f 106//2 107//2 105//2
f 106//2 108//2 107//2
f 109//2 108//2 106//2
f 110//2 111//2 108//2
f 112//2 110//2 108//2
f 113//2 112//2 108//2
f 114//2 113//2 108//2
f 115//2 114//2 108//2
f 116//2 115//2 108//2
f 117//2 116//2 108//2
f 118//2 117//2 108//2
f 119//2 118//2 108//2
f 120//2 119//2 108//2
f 121//2 120//2 108//2
f 109//2 121//2 108//2
f 122//2 121//2 109//2
f 123//2 122//2 109//2
f 123//2 124//2 122//2
f 123//2 125//2 124//2
f 123//2 126//2 125//2
f 127//2 126//2 123//2
f 127//2 128//2 126//2
f 127//2 129//2 128//2
f 127//2 130//2 129//2
f 131//2 130//2 127//2
f 131//2 132//2 130//2
f 131//2 133//2 132//2
f 134//2 133//2 131//2
f 134//2 135//2 133//2
f 134//2 136//2 135//2
f 137//2 136//2 134//2
f 137//2 138//2 136//2
f 137//2 139//2 138//2
f 140//2 139//2 137//2
f 140//2 141//2 139//2
f 140//2 142//2 141//2
f 143//2 142//2 140//2
f 143//2 144//2 142//2
f 143//2 145//2 144//2
f 146//2 145//2 143//2
f 146//2 147//2 145//2
f 146//2 148//2 147//2
f 149//2 148//2 146//2
f 149//2 150//2 148//2
f 149//2 151//2 150//2
f 149//2 152//2 151//2
f 153//2 152//2 149//2
f 153//2 154//2 152//2
f 153//2 155//2 154//2
f 156//2 155//2 153//2
f 156//2 157//2 155//2
f 156//2 158//2 157//2
f 159//2 158//2 156//2
f 159//2 160//2 158//2
f 161//2 160//2 159//2
f 161//2 162//2 160//2
f 163//2 162//2 161//2
f 163//2 164//2 162//2
f 163//2 165//2 164//2
f 166//2 165//2 163//2
f 166//2 167//2 165//2
f 168//2 167//2 166//2
f 168//2 169//2 167//2
f 170//2 169//2 168//2
f 170//2 171//2 169//2
f 170//2 172//2 171//2
f 173//2 172//2 170//2
f 174//2 172//2 173//2
f 174//2 175//2 172//2
f 174//2 176//2 175//2
f 174//2 177//2 176//2
f 174//2 178//2 177//2
s 1
f 179//3 180//4 181//4
f 182//5 183//3 179//3
f 184//6 185//5 182//5
f 186//7 187//6 184//6
f 188//8 189//7 186//7
f 190//9 191//8 188//8
f 192//10 193//9 190//9
f 194//11 195//10 192//10
f 196//12 197//11 194//11
f 198//13 199//12 196//12
f 200//14 201//13 198//13
f 202//15 203//14 200//14
f 204//16 205//15 202//15
f 206//17 207//16 204//16
f 208//18 209//17 206//17
f 210//19 211//18 208//18
f 212//20 213//19 210//19
f 214//21 215//22 212//20
f 216//23 217//21 214//21
f 218//24 219//23 216//23
f 220//25 221//24 218//24
f 222//26 223//25 220//25
f 224//27 225//26 222//26
f 226//28 227//27 224//27
f 228//29 229//28 226//28
f 230//30 231//29 228//29
f 232//31 233//30 230//30
f 234//32 235//31 232//31
f 236//33 237//32 234//32
f 238//34 239//33 236//33
f 240//35 241//34 238//34
f 242//36 243//35 240//35
f 244//37 245//36 242//36
f 246//38 247//37 244//37
f 248//39 249//38 246//38
f 250//40 251//39 248//39
f 252//41 253//40 250//40
f 254//42 255//41 252//41
f 256//43 257//42 254//42
f 258//44 259//43 256//43
f 260//45 261//44 258//44
f 262//46 263//45 260//45
f 264//47 265//46 262//46
f 266//48 267//47 264//47
f 268//49 269//48 266//48
f 270//50 271//49 268//49
f 272//51 273//50 270//50
f 274//52 275//51 272//51
f 276//53 277//52 274//52
f 278//54 279//53 276//53
f 280//55 281//54 278//54
f 282//56 283//55 280//55
f 284//57 285//56 282//56
f 286//58 287//57 284//57
f 288//59 289//58 286//58
f 290//60 291//59 288//59
f 292//61 293//60 290//60
f 294//62 295//61 292//61
f 296//63 297//62 294//62
f 298//64 299//63 296//63
f 300//65 301//64 298//64
f 302//66 303//65 300//65
f 304//67 305//66 302//66
f 306//68 307//67 304//67
f 308//69 309//68 306//68
f 310//70 311//69 308//69
f 312//71 313//70 310//70
f 314//72 315//71 312//71
f 316//73 317//72 314//72
f 318//74 319//73 316//73
f 320//75 321//74 318//74
f 322//76 323//75 320//75
f 324//77 325//76 322//76
f 326//78 327//77 324//77
f 328//79 329//78 326//78
f 330//80 331//79 328//79
f 332//81 333//80 330//80
f 334//82 335//81 332//81
f 336//83 337//82 334//82
f 338//84 339//83 336//83
f 340//85 341//84 338//84
f 342//86 343//85 340//85
f 344//87 345//86 342//86
f 346//88 347//87 344//87
f 348//89 349//88 346//88
f 350//90 351//89 348//89
f 352//91 353//90 350//90
f 354//92 355//91 352//91
f 181//4 356//92 354//92
f 179//3 183//3 180//4
f 182//5 185//5 183//3
f 184//6 187//6 185//5
f 186//7 189//7 187//6
f 188//8 191//8 189//7
f 190//9 193//9 191//8
f 192//10 195//10 193//9
f 194//11 197//11 195//10
f 196//12 199//12 197//11
f 198//13 201//13 199//12
f 200//14 203//14 201//13
f 202//15 205//15 203//14
f 204//16 207//16 205//15
f 206//17 209//17 207//16
f 208//18 211//18 209//17
f 210//19 213//19 211//18
f 212//20 215//22 213//19
f 214//21 217//21 215//22
f 216//23 219//23 217//21
f 218//24 221//24 219//23
f 220//25 223//25 221//24
f 222//26 225//26 223//25
f 224//27 227//27 225//26
f 226//28 229//28 227//27
f 228//29 231//29 229//28
f 230//30 233//30 231//29
f 232//31 235//31 233//30
f 234//32 237//32 235//31
f 236//33 239//33 237//32
f 238//34 241//34 239//33
f 240//35 243//35 241//34
f 242//36 245//36 243//35
f 244//37 247//37 245//36
f 246//38 249//38 247//37
f 248//39 251//39 249//38
f 250//40 253//40 251//39
f 252//41 255//41 253//40
f 254//42 257//42 255//41
f 256//43 259//43 257//42
f 258//44 261//44 259//43
f 260//45 263//45 261//44
f 262//46 265//46 263//45
f 264//47 267//47 265//46
f 266//48 269//48 267//47
f 268//49 271//49 269//48
f 270//50 273//50 271//49
f 272//51 275//51 273//50
f 274//52 277//52 275//51
f 276//53 279//53 277//52
f 278//54 281//54 279//53
f 280//55 283//55 281//54
f 282//56 285//56 283//55
f 284//57 287//57 285//56
f 286//58 289//58 287//57
f 288//59 291//59 289//58
f 290//60 293//60 291//59
f 292//61 295//61 293//60
f 294//62 297//62 295//61
f 296//63 299//63 297//62
f 298//64 301//64 299//63
f 300//65 303//65 301//64
f 302//66 305//66 303//65
f 304//67 307//67 305//66
f 306//68 309//68 307//67
f 308//69 311//69 309//68
f 310//70 313//70 311//69
f 312//71 315//71 313//70
f 314//72 317//72 315//71
f 316//73 319//73 317//72
f 318//74 321//74 319//73
f 320//75 323//75 321//74
f 322//76 325//76 323//75
f 324//77 327//77 325//76
f 326//78 329//78 327//77
f 328//79 331//79 329//78
f 330//80 333//80 331//79
f 332//81 335//81 333//80
f 334//82 337//82 335//81
f 336//83 339//83 337//82
f 338//84 341//84 339//83
f 340//85 343//85 341//84
f 342//86 345//86 343//85
f 344//87 347//87 345//86
f 346//88 349//88 347//87
f 348//89 351//89 349//88
f 350//90 353//90 351//89
f 352//91 355//91 353//90
f 354//92 356//92 355//91
f 181//4 180//4 356//92
