# Blender v2.79 (sub 0) OBJ File: ''
# www.blender.org
mtllib number.mtl
o Text_CUtext.003
v 0.011000 0.269000 0.100000
v 0.398000 0.691000 0.100000
v 0.356000 0.691000 0.100000
v 0.298000 0.506000 0.100000
v 0.300000 0.506000 0.100000
v 0.398000 0.312000 0.100000
v 0.142000 0.312000 0.100000
v 0.300000 0.312000 0.100000
v 0.471000 0.312000 0.100000
v 0.471000 0.224000 0.100000
v 0.011000 0.224000 0.100000
v 0.300000 0.224000 0.100000
v 0.300000 -0.000000 0.100000
v 0.398000 0.224000 0.100000
v 0.398000 -0.000000 0.100000
v 0.398000 0.691000 -0.100000
v 0.011000 0.269000 -0.100000
v 0.356000 0.691000 -0.100000
v 0.298000 0.506000 -0.100000
v 0.300000 0.506000 -0.100000
v 0.398000 0.312000 -0.100000
v 0.142000 0.312000 -0.100000
v 0.300000 0.312000 -0.100000
v 0.471000 0.312000 -0.100000
v 0.471000 0.224000 -0.100000
v 0.011000 0.224000 -0.100000
v 0.300000 0.224000 -0.100000
v 0.398000 0.224000 -0.100000
v 0.300000 -0.000000 -0.100000
v 0.398000 -0.000000 -0.100000
v 0.471000 0.224000 0.100000
v 0.471000 0.312000 -0.100000
v 0.471000 0.312000 0.100000
v 0.398000 0.224000 0.100000
v 0.471000 0.224000 -0.100000
v 0.398000 -0.000000 0.100000
v 0.398000 0.224000 -0.100000
v 0.300000 -0.000000 0.100000
v 0.398000 -0.000000 -0.100000
v 0.300000 0.224000 0.100000
v 0.300000 -0.000000 -0.100000
v 0.011000 0.224000 0.100000
v 0.300000 0.224000 -0.100000
v 0.011000 0.269000 0.100000
v 0.011000 0.224000 -0.100000
v 0.356000 0.691000 0.100000
v 0.011000 0.269000 -0.100000
v 0.398000 0.691000 0.100000
v 0.356000 0.691000 -0.100000
v 0.398000 0.312000 0.100000
v 0.398000 0.691000 -0.100000
v 0.398000 0.312000 -0.100000
v 0.300000 0.506000 0.100000
v 0.300000 0.312000 -0.100000
v 0.300000 0.312000 0.100000
v 0.298000 0.506000 0.100000
v 0.300000 0.506000 -0.100000
v 0.142000 0.312000 0.100000
v 0.298000 0.506000 -0.100000
v 0.142000 0.312000 -0.100000
vn 0.0000 0.0000 1.0000
vn 1.0000 -0.0000 0.0000
vn 1.0000 0.0001 0.0000
vn -0.2706 -0.9239 0.2706
vn -0.3827 -0.9239 0.0000
vn 0.3827 -0.9239 0.0000
vn 0.0000 -0.0000 -1.0000
vn 0.0000 -0.0264 0.9997
vn -0.0000 -0.0265 0.9996
vn 1.0000 -0.0001 0.0000
vn 0.7071 -0.7071 0.0000
vn 0.7071 0.7071 0.0000
vn -0.7071 -0.7071 0.0000
vn -0.9419 0.3360 0.0000
vn -0.4284 0.9036 -0.0000
vn -0.7071 0.7071 0.0000
vn 0.4321 -0.9018 0.0000
vn 0.9018 0.4321 0.0000
usemtl Material.004
s off
f 1//1 2//1 3//1
f 1//1 4//1 2//1
f 4//1 5//1 2//1
f 5//1 6//1 2//1
f 1//1 7//1 4//1
f 8//1 6//1 5//1
f 1//1 8//1 7//1
f 1//1 6//1 8//1
f 1//1 9//1 6//1
f 1//1 10//1 9//1
f 11//1 10//1 1//1
f 12//2 10//3 11//2
f 13//1 14//1 12//1
f 14//4 10//5 12//6
f 13//1 15//1 14//1
f 16//7 17//7 18//7
f 19//7 17//7 16//7
f 20//7 19//7 16//7
f 21//7 20//7 16//7
f 22//7 17//7 19//7
f 21//7 23//7 20//7
f 23//7 17//7 22//7
f 21//7 17//7 23//7
f 24//7 17//7 21//7
f 25//7 17//7 24//7
f 25//7 26//7 17//7
f 25//8 27//8 26//9
f 28//7 29//7 27//7
f 25//10 28//2 27//2
f 30//7 29//7 28//7
s 1
f 31//11 32//12 33//12
f 34//11 35//11 31//11
f 36//11 37//11 34//11
f 38//13 39//11 36//11
f 40//13 41//13 38//13
f 42//13 43//13 40//13
f 44//14 45//13 42//13
f 46//15 47//14 44//14
f 48//12 49//15 46//15
f 50//12 51//12 48//12
f 33//12 52//12 50//12
f 53//13 54//16 55//16
f 56//17 57//13 53//13
f 58//18 59//17 56//17
f 55//16 60//18 58//18
f 31//11 35//11 32//12
f 34//11 37//11 35//11
f 36//11 39//11 37//11
f 38//13 41//13 39//11
f 40//13 43//13 41//13
f 42//13 45//13 43//13
f 44//14 47//14 45//13
f 46//15 49//15 47//14
f 48//12 51//12 49//15
f 50//12 52//12 51//12
f 33//12 32//12 52//12
f 53//13 57//13 54//16
f 56//17 59//17 57//13
f 58//18 60//18 59//17
f 55//16 54//16 60//18
