# Blender v2.79 (sub 0) OBJ File: ''
# www.blender.org
mtllib number.mtl
o Text_CUtext.004
v 0.101000 0.327000 0.100000
v 0.190000 0.594000 0.100000
v 0.101000 0.682000 0.100000
v 0.404000 0.682000 0.100000
v 0.404000 0.594000 0.100000
v 0.190000 0.423000 0.100000
v 0.261843 0.419023 0.100000
v 0.227230 0.423086 0.100000
v 0.293719 0.411078 0.100000
v 0.322741 0.399519 0.100000
v 0.348790 0.384612 0.100000
v 0.137213 0.333863 0.100000
v 0.371750 0.366625 0.100000
v 0.170787 0.336653 0.100000
v 0.391501 0.345826 0.100000
v 0.201625 0.335672 0.100000
v 0.407926 0.322481 0.100000
v 0.229630 0.331222 0.100000
v 0.254704 0.323606 0.100000
v 0.276750 0.313125 0.100000
v 0.420906 0.296859 0.100000
v 0.295671 0.300082 0.100000
v 0.311370 0.284778 0.100000
v 0.430324 0.269227 0.100000
v 0.323750 0.267516 0.100000
v 0.436061 0.239851 0.100000
v 0.332713 0.248597 0.100000
v 0.338162 0.228325 0.100000
v 0.438000 0.209000 0.100000
v 0.340000 0.207000 0.100000
v 0.436076 0.178242 0.100000
v 0.338696 0.190505 0.100000
v 0.334903 0.174625 0.100000
v 0.430440 0.149102 0.100000
v 0.328797 0.159516 0.100000
v 0.320556 0.145333 0.100000
v 0.421297 0.121781 0.100000
v 0.310356 0.132234 0.100000
v 0.050000 0.033000 0.100000
v 0.062270 0.126084 0.100000
v 0.050000 0.134000 0.100000
v 0.298375 0.120375 0.100000
v 0.074579 0.118838 0.100000
v 0.408852 0.096481 0.100000
v 0.284790 0.109911 0.100000
v 0.086922 0.112266 0.100000
v 0.099296 0.106370 0.100000
v 0.269778 0.101000 0.100000
v 0.111698 0.101156 0.100000
v 0.124125 0.096625 0.100000
v 0.253516 0.093797 0.100000
v 0.136572 0.092782 0.100000
v 0.393310 0.073404 0.100000
v 0.236181 0.088458 0.100000
v 0.149037 0.089630 0.100000
v 0.161516 0.087172 0.100000
v 0.217950 0.085141 0.100000
v 0.174005 0.085412 0.100000
v 0.186501 0.084354 0.100000
v 0.199000 0.084000 0.100000
v 0.374875 0.052750 0.100000
v 0.353753 0.034721 0.100000
v 0.330148 0.019519 0.100000
v 0.064514 0.025872 0.100000
v 0.078611 0.019472 0.100000
v 0.304266 0.007344 0.100000
v 0.092375 0.013781 0.100000
v 0.105889 0.008778 0.100000
v 0.119236 0.004441 0.100000
v 0.276310 -0.001602 0.100000
v 0.132500 0.000750 0.100000
v 0.145764 -0.002316 0.100000
v 0.246487 -0.007117 0.100000
v 0.159111 -0.004778 0.100000
v 0.172625 -0.006656 0.100000
v 0.186389 -0.007972 0.100000
v 0.215000 -0.009000 0.100000
v 0.200486 -0.008747 0.100000
v 0.190000 0.594000 -0.100000
v 0.101000 0.327000 -0.100000
v 0.101000 0.682000 -0.100000
v 0.404000 0.682000 -0.100000
v 0.404000 0.594000 -0.100000
v 0.190000 0.423000 -0.100000
v 0.261843 0.419023 -0.100000
v 0.227230 0.423086 -0.100000
v 0.293719 0.411078 -0.100000
v 0.322741 0.399519 -0.100000
v 0.348790 0.384612 -0.100000
v 0.137213 0.333863 -0.100000
v 0.371750 0.366625 -0.100000
v 0.170787 0.336653 -0.100000
v 0.391501 0.345826 -0.100000
v 0.201625 0.335672 -0.100000
v 0.407926 0.322481 -0.100000
v 0.229630 0.331222 -0.100000
v 0.254704 0.323606 -0.100000
v 0.276750 0.313125 -0.100000
v 0.420906 0.296859 -0.100000
v 0.295671 0.300082 -0.100000
v 0.311370 0.284778 -0.100000
v 0.430324 0.269227 -0.100000
v 0.323750 0.267516 -0.100000
v 0.436061 0.239851 -0.100000
v 0.332713 0.248597 -0.100000
v 0.338162 0.228325 -0.100000
v 0.438000 0.209000 -0.100000
v 0.340000 0.207000 -0.100000
v 0.436076 0.178242 -0.100000
v 0.338696 0.190505 -0.100000
v 0.334903 0.174625 -0.100000
v 0.430440 0.149102 -0.100000
v 0.328797 0.159516 -0.100000
v 0.320556 0.145333 -0.100000
v 0.421297 0.121781 -0.100000
v 0.310356 0.132234 -0.100000
v 0.062270 0.126084 -0.100000
v 0.050000 0.033000 -0.100000
v 0.050000 0.134000 -0.100000
v 0.298375 0.120375 -0.100000
v 0.074579 0.118838 -0.100000
v 0.408852 0.096481 -0.100000
v 0.284790 0.109911 -0.100000
v 0.086922 0.112266 -0.100000
v 0.099296 0.106370 -0.100000
v 0.269778 0.101000 -0.100000
v 0.111699 0.101156 -0.100000
v 0.124125 0.096625 -0.100000
v 0.253516 0.093797 -0.100000
v 0.136572 0.092782 -0.100000
v 0.393310 0.073404 -0.100000
v 0.236181 0.088458 -0.100000
v 0.149037 0.089630 -0.100000
v 0.161516 0.087172 -0.100000
v 0.217950 0.085141 -0.100000
v 0.174005 0.085412 -0.100000
v 0.186501 0.084354 -0.100000
v 0.199000 0.084000 -0.100000
v 0.374875 0.052750 -0.100000
v 0.353753 0.034721 -0.100000
v 0.330148 0.019519 -0.100000
v 0.064514 0.025872 -0.100000
v 0.078611 0.019472 -0.100000
v 0.304266 0.007344 -0.100000
v 0.092375 0.013781 -0.100000
v 0.105889 0.008778 -0.100000
v 0.119236 0.004441 -0.100000
v 0.276310 -0.001602 -0.100000
v 0.132500 0.000750 -0.100000
v 0.145764 -0.002316 -0.100000
v 0.246487 -0.007117 -0.100000
v 0.159111 -0.004778 -0.100000
v 0.172625 -0.006656 -0.100000
v 0.186389 -0.007972 -0.100000
v 0.215000 -0.009000 -0.100000
v 0.200486 -0.008747 -0.100000
v 0.190000 0.423000 0.100000
v 0.190000 0.594000 -0.100000
v 0.190000 0.594000 0.100000
v 0.227230 0.423086 0.100000
v 0.190000 0.423000 -0.100000
v 0.261843 0.419023 0.100000
v 0.227230 0.423086 -0.100000
v 0.293719 0.411078 0.100000
v 0.261843 0.419023 -0.100000
v 0.322741 0.399519 0.100000
v 0.293719 0.411078 -0.100000
v 0.348790 0.384612 0.100000
v 0.322741 0.399519 -0.100000
v 0.371750 0.366625 0.100000
v 0.348790 0.384612 -0.100000
v 0.391501 0.345826 0.100000
v 0.371750 0.366625 -0.100000
v 0.407926 0.322481 0.100000
v 0.391501 0.345826 -0.100000
v 0.420906 0.296859 0.100000
v 0.407926 0.322481 -0.100000
v 0.430324 0.269227 0.100000
v 0.420906 0.296859 -0.100000
v 0.436061 0.239851 0.100000
v 0.430324 0.269227 -0.100000
v 0.438000 0.209000 0.100000
v 0.436061 0.239851 -0.100000
v 0.436076 0.178242 0.100000
v 0.438000 0.209000 -0.100000
v 0.430440 0.149102 0.100000
v 0.436076 0.178242 -0.100000
v 0.421297 0.121781 0.100000
v 0.430440 0.149102 -0.100000
v 0.408852 0.096481 0.100000
v 0.421297 0.121781 -0.100000
v 0.393310 0.073404 0.100000
v 0.408852 0.096481 -0.100000
v 0.374875 0.052750 0.100000
v 0.393310 0.073404 -0.100000
v 0.353753 0.034721 0.100000
v 0.374875 0.052750 -0.100000
v 0.330148 0.019519 0.100000
v 0.353753 0.034721 -0.100000
v 0.304266 0.007344 0.100000
v 0.330148 0.019519 -0.100000
v 0.276310 -0.001602 0.100000
v 0.304266 0.007344 -0.100000
v 0.246487 -0.007117 0.100000
v 0.276310 -0.001602 -0.100000
v 0.215000 -0.009000 0.100000
v 0.246487 -0.007117 -0.100000
v 0.200486 -0.008747 0.100000
v 0.215000 -0.009000 -0.100000
v 0.186389 -0.007972 0.100000
v 0.200486 -0.008747 -0.100000
v 0.172625 -0.006656 0.100000
v 0.186389 -0.007972 -0.100000
v 0.159111 -0.004778 0.100000
v 0.172625 -0.006656 -0.100000
v 0.145764 -0.002316 0.100000
v 0.159111 -0.004778 -0.100000
v 0.132500 0.000750 0.100000
v 0.145764 -0.002316 -0.100000
v 0.119236 0.004441 0.100000
v 0.132500 0.000750 -0.100000
v 0.105889 0.008778 0.100000
v 0.119236 0.004441 -0.100000
v 0.092375 0.013781 0.100000
v 0.105889 0.008778 -0.100000
v 0.078611 0.019472 0.100000
v 0.092375 0.013781 -0.100000
v 0.064514 0.025872 0.100000
v 0.078611 0.019472 -0.100000
v 0.050000 0.033000 0.100000
v 0.064514 0.025872 -0.100000
v 0.050000 0.134000 0.100000
v 0.050000 0.033000 -0.100000
v 0.062270 0.126084 0.100000
v 0.050000 0.134000 -0.100000
v 0.074579 0.118838 0.100000
v 0.062270 0.126084 -0.100000
v 0.086922 0.112266 0.100000
v 0.074579 0.118838 -0.100000
v 0.099296 0.106370 0.100000
v 0.086922 0.112266 -0.100000
v 0.111698 0.101156 0.100000
v 0.099296 0.106370 -0.100000
v 0.124125 0.096625 0.100000
v 0.111699 0.101156 -0.100000
v 0.136572 0.092782 0.100000
v 0.124125 0.096625 -0.100000
v 0.149037 0.089630 0.100000
v 0.136572 0.092782 -0.100000
v 0.161516 0.087172 0.100000
v 0.149037 0.089630 -0.100000
v 0.174005 0.085412 0.100000
v 0.161516 0.087172 -0.100000
v 0.186501 0.084354 0.100000
v 0.174005 0.085412 -0.100000
v 0.199000 0.084000 0.100000
v 0.186501 0.084354 -0.100000
v 0.217950 0.085141 0.100000
v 0.199000 0.084000 -0.100000
v 0.236181 0.088458 0.100000
v 0.217950 0.085141 -0.100000
v 0.253516 0.093797 0.100000
v 0.236181 0.088458 -0.100000
v 0.269778 0.101000 0.100000
v 0.253516 0.093797 -0.100000
v 0.284790 0.109911 0.100000
v 0.269778 0.101000 -0.100000
v 0.298375 0.120375 0.100000
v 0.284790 0.109911 -0.100000
v 0.310356 0.132234 0.100000
v 0.298375 0.120375 -0.100000
v 0.320556 0.145333 0.100000
v 0.310356 0.132234 -0.100000
v 0.328797 0.159516 0.100000
v 0.320556 0.145333 -0.100000
v 0.334903 0.174625 0.100000
v 0.328797 0.159516 -0.100000
v 0.338696 0.190505 0.100000
v 0.334903 0.174625 -0.100000
v 0.340000 0.207000 0.100000
v 0.338696 0.190505 -0.100000
v 0.338162 0.228325 0.100000
v 0.340000 0.207000 -0.100000
v 0.332713 0.248597 0.100000
v 0.338162 0.228325 -0.100000
v 0.323750 0.267516 0.100000
v 0.332713 0.248597 -0.100000
v 0.311370 0.284778 0.100000
v 0.323750 0.267516 -0.100000
v 0.295671 0.300082 0.100000
v 0.311370 0.284778 -0.100000
v 0.276750 0.313125 0.100000
v 0.295671 0.300082 -0.100000
v 0.254704 0.323606 0.100000
v 0.276750 0.313125 -0.100000
v 0.229630 0.331222 0.100000
v 0.254704 0.323606 -0.100000
v 0.201625 0.335672 0.100000
v 0.229630 0.331222 -0.100000
v 0.170787 0.336653 0.100000
v 0.201625 0.335672 -0.100000
v 0.137213 0.333863 0.100000
v 0.170787 0.336653 -0.100000
v 0.101000 0.327000 0.100000
v 0.137213 0.333863 -0.100000
v 0.101000 0.682000 0.100000
v 0.101000 0.327000 -0.100000
v 0.404000 0.682000 0.100000
v 0.101000 0.682000 -0.100000
v 0.404000 0.594000 0.100000
v 0.404000 0.682000 -0.100000
v 0.404000 0.594000 -0.100000
vn 0.0000 0.0000 1.0000
vn 0.0000 0.0000 -1.0000
vn 0.7063 0.7079 0.0000
vn 0.7071 -0.7071 -0.0000
vn 0.0572 0.9984 0.0000
vn 0.1796 0.9837 -0.0000
vn 0.3066 0.9518 0.0000
vn 0.4344 0.9007 0.0000
vn 0.5582 0.8297 0.0000
vn 0.6727 0.7399 0.0000
vn 0.7736 0.6337 0.0000
vn 0.8572 0.5150 0.0000
vn 0.9216 0.3882 -0.0000
vn 0.9662 0.2577 -0.0000
vn 0.9918 0.1275 -0.0000
vn 1.0000 0.0001 0.0000
vn 0.9920 -0.1264 0.0000
vn 0.9672 -0.2542 0.0000
vn 0.9249 -0.3802 0.0000
vn 0.8654 -0.5012 -0.0000
vn 0.7896 -0.6137 -0.0000
vn 0.8654 -0.5011 -0.0000
vn 0.6992 -0.7149 -0.0000
vn 0.5967 -0.8025 0.0000
vn 0.4846 -0.8747 0.0000
vn 0.3660 -0.9306 0.0000
vn 0.2438 -0.9698 0.0000
vn 0.1210 -0.9927 0.0000
vn 0.0211 -0.9998 0.0000
vn -0.0362 -0.9993 0.0000
vn -0.0751 -0.9972 0.0000
vn -0.1164 -0.9932 0.0000
vn -0.1596 -0.9872 0.0000
vn -0.2034 -0.9791 0.0000
vn -0.2467 -0.9691 0.0000
vn -0.2886 -0.9574 0.0000
vn -0.3282 -0.9446 0.0000
vn -0.3647 -0.9311 0.0000
vn -0.3978 -0.9175 0.0000
vn -0.4272 -0.9042 0.0000
vn -0.8488 -0.5288 0.0000
vn -0.4785 0.8781 0.0000
vn 0.5248 0.8512 -0.0000
vn 0.4888 0.8724 0.0000
vn 0.4502 0.8929 0.0000
vn 0.4090 0.9126 -0.0000
vn 0.3652 0.9309 0.0000
vn 0.3189 0.9478 0.0000
vn 0.2702 0.9628 -0.0000
vn 0.2193 0.9757 0.0000
vn 0.1665 0.9860 0.0000
vn 0.1120 0.9937 0.0000
vn 0.0564 0.9984 0.0000
vn -0.0159 0.9999 0.0000
vn -0.1198 0.9928 0.0000
vn -0.2371 0.9715 0.0000
vn -0.3503 0.9366 0.0000
vn -0.4585 0.8887 0.0000
vn -0.5614 0.8276 0.0000
vn -0.6581 0.7529 0.0000
vn -0.7478 0.6639 0.0000
vn -0.8287 0.5597 0.0000
vn -0.8982 0.4397 0.0000
vn -0.9526 0.3044 0.0000
vn -0.9878 0.1560 0.0000
vn -1.0000 -0.0035 0.0000
vn -0.9849 -0.1734 0.0000
vn -0.9385 -0.3453 0.0000
vn -0.8616 -0.5075 0.0000
vn -0.7583 -0.6519 0.0000
vn -0.6351 -0.7725 0.0000
vn -0.5001 -0.8660 0.0000
vn -0.3610 -0.9326 0.0000
vn -0.2243 -0.9745 -0.0000
vn -0.0946 -0.9955 -0.0000
vn 0.0256 -0.9997 0.0000
vn 0.1347 -0.9909 0.0000
vn -0.6379 -0.7701 -0.0000
vn -0.7071 0.7071 -0.0000
vn 0.7071 0.7071 -0.0000
usemtl Material.005
s off
f 1//1 2//1 3//1
f 2//1 4//1 3//1
f 2//1 5//1 4//1
f 1//1 6//1 2//1
f 6//1 7//1 8//1
f 1//1 7//1 6//1
f 1//1 9//1 7//1
f 1//1 10//1 9//1
f 1//1 11//1 10//1
f 1//1 12//1 11//1
f 12//1 13//1 11//1
f 12//1 14//1 13//1
f 14//1 15//1 13//1
f 14//1 16//1 15//1
f 16//1 17//1 15//1
f 18//1 17//1 16//1
f 19//1 17//1 18//1
f 20//1 17//1 19//1
f 20//1 21//1 17//1
f 22//1 21//1 20//1
f 23//1 21//1 22//1
f 23//1 24//1 21//1
f 25//1 24//1 23//1
f 25//1 26//1 24//1
f 27//1 26//1 25//1
f 28//1 26//1 27//1
f 28//1 29//1 26//1
f 30//1 29//1 28//1
f 30//1 31//1 29//1
f 32//1 31//1 30//1
f 33//1 31//1 32//1
f 33//1 34//1 31//1
f 35//1 34//1 33//1
f 36//1 34//1 35//1
f 36//1 37//1 34//1
f 38//1 37//1 36//1
f 39//1 40//1 41//1
f 42//1 37//1 38//1
f 39//1 43//1 40//1
f 42//1 44//1 37//1
f 45//1 44//1 42//1
f 39//1 46//1 43//1
f 39//1 47//1 46//1
f 48//1 44//1 45//1
f 39//1 49//1 47//1
f 39//1 50//1 49//1
f 51//1 44//1 48//1
f 39//1 52//1 50//1
f 51//1 53//1 44//1
f 54//1 53//1 51//1
f 39//1 55//1 52//1
f 39//1 56//1 55//1
f 57//1 53//1 54//1
f 39//1 58//1 56//1
f 39//1 59//1 58//1
f 60//1 53//1 57//1
f 39//1 60//1 59//1
f 39//1 53//1 60//1
f 39//1 61//1 53//1
f 39//1 62//1 61//1
f 39//1 63//1 62//1
f 64//1 63//1 39//1
f 65//1 63//1 64//1
f 65//1 66//1 63//1
f 67//1 66//1 65//1
f 68//1 66//1 67//1
f 69//1 66//1 68//1
f 69//1 70//1 66//1
f 71//1 70//1 69//1
f 72//1 70//1 71//1
f 72//1 73//1 70//1
f 74//1 73//1 72//1
f 75//1 73//1 74//1
f 76//1 73//1 75//1
f 76//1 77//1 73//1
f 78//1 77//1 76//1
f 79//2 80//2 81//2
f 82//2 79//2 81//2
f 83//2 79//2 82//2
f 84//2 80//2 79//2
f 85//2 84//2 86//2
f 85//2 80//2 84//2
f 87//2 80//2 85//2
f 88//2 80//2 87//2
f 89//2 80//2 88//2
f 90//2 80//2 89//2
f 91//2 90//2 89//2
f 92//2 90//2 91//2
f 93//2 92//2 91//2
f 94//2 92//2 93//2
f 95//2 94//2 93//2
f 95//2 96//2 94//2
f 95//2 97//2 96//2
f 95//2 98//2 97//2
f 99//2 98//2 95//2
f 99//2 100//2 98//2
f 99//2 101//2 100//2
f 102//2 101//2 99//2
f 102//2 103//2 101//2
f 104//2 103//2 102//2
f 104//2 105//2 103//2
f 104//2 106//2 105//2
f 107//2 106//2 104//2
f 107//2 108//2 106//2
f 109//2 108//2 107//2
f 109//2 110//2 108//2
f 109//2 111//2 110//2
f 112//2 111//2 109//2
f 112//2 113//2 111//2
f 112//2 114//2 113//2
f 115//2 114//2 112//2
f 115//2 116//2 114//2
f 117//2 118//2 119//2
f 115//2 120//2 116//2
f 121//2 118//2 117//2
f 122//2 120//2 115//2
f 122//2 123//2 120//2
f 124//2 118//2 121//2
f 125//2 118//2 124//2
f 122//2 126//2 123//2
f 127//2 118//2 125//2
f 128//2 118//2 127//2
f 122//2 129//2 126//2
f 130//2 118//2 128//2
f 131//2 129//2 122//2
f 131//2 132//2 129//2
f 133//2 118//2 130//2
f 134//2 118//2 133//2
f 131//2 135//2 132//2
f 136//2 118//2 134//2
f 137//2 118//2 136//2
f 131//2 138//2 135//2
f 138//2 118//2 137//2
f 131//2 118//2 138//2
f 139//2 118//2 131//2
f 140//2 118//2 139//2
f 141//2 118//2 140//2
f 141//2 142//2 118//2
f 141//2 143//2 142//2
f 144//2 143//2 141//2
f 144//2 145//2 143//2
f 144//2 146//2 145//2
f 144//2 147//2 146//2
f 148//2 147//2 144//2
f 148//2 149//2 147//2
f 148//2 150//2 149//2
f 151//2 150//2 148//2
f 151//2 152//2 150//2
f 151//2 153//2 152//2
f 151//2 154//2 153//2
f 155//2 154//2 151//2
f 155//2 156//2 154//2
s 1
f 157//3 158//4 159//4
f 160//5 161//3 157//3
f 162//6 163//5 160//5
f 164//7 165//6 162//6
f 166//8 167//7 164//7
f 168//9 169//8 166//8
f 170//10 171//9 168//9
f 172//11 173//10 170//10
f 174//12 175//11 172//11
f 176//13 177//12 174//12
f 178//14 179//13 176//13
f 180//15 181//14 178//14
f 182//16 183//15 180//15
f 184//17 185//16 182//16
f 186//18 187//17 184//17
f 188//19 189//18 186//18
f 190//20 191//19 188//19
f 192//21 193//22 190//20
f 194//23 195//21 192//21
f 196//24 197//23 194//23
f 198//25 199//24 196//24
f 200//26 201//25 198//25
f 202//27 203//26 200//26
f 204//28 205//27 202//27
f 206//29 207//28 204//28
f 208//30 209//29 206//29
f 210//31 211//30 208//30
f 212//32 213//31 210//31
f 214//33 215//32 212//32
f 216//34 217//33 214//33
f 218//35 219//34 216//34
f 220//36 221//35 218//35
f 222//37 223//36 220//36
f 224//38 225//37 222//37
f 226//39 227//38 224//38
f 228//40 229//39 226//39
f 230//41 231//40 228//40
f 232//42 233//41 230//41
f 234//43 235//42 232//42
f 236//44 237//43 234//43
f 238//45 239//44 236//44
f 240//46 241//45 238//45
f 242//47 243//46 240//46
f 244//48 245//47 242//47
f 246//49 247//48 244//48
f 248//50 249//49 246//49
f 250//51 251//50 248//50
f 252//52 253//51 250//51
f 254//53 255//52 252//52
f 256//54 257//53 254//53
f 258//55 259//54 256//54
f 260//56 261//55 258//55
f 262//57 263//56 260//56
f 264//58 265//57 262//57
f 266//59 267//58 264//58
f 268//60 269//59 266//59
f 270//61 271//60 268//60
f 272//62 273//61 270//61
f 274//63 275//62 272//62
f 276//64 277//63 274//63
f 278//65 279//64 276//64
f 280//66 281//65 278//65
f 282//67 283//66 280//66
f 284//68 285//67 282//67
f 286//69 287//68 284//68
f 288//70 289//69 286//69
f 290//71 291//70 288//70
f 292//72 293//71 290//71
f 294//73 295//72 292//72
f 296//74 297//73 294//73
f 298//75 299//74 296//74
f 300//76 301//75 298//75
f 302//77 303//76 300//76
f 304//78 305//77 302//77
f 306//79 307//78 304//78
f 308//80 309//79 306//79
f 310//4 311//80 308//80
f 159//4 312//4 310//4
f 157//3 161//3 158//4
f 160//5 163//5 161//3
f 162//6 165//6 163//5
f 164//7 167//7 165//6
f 166//8 169//8 167//7
f 168//9 171//9 169//8
f 170//10 173//10 171//9
f 172//11 175//11 173//10
f 174//12 177//12 175//11
f 176//13 179//13 177//12
f 178//14 181//14 179//13
f 180//15 183//15 181//14
f 182//16 185//16 183//15
f 184//17 187//17 185//16
f 186//18 189//18 187//17
f 188//19 191//19 189//18
f 190//20 193//22 191//19
f 192//21 195//21 193//22
f 194//23 197//23 195//21
f 196//24 199//24 197//23
f 198//25 201//25 199//24
f 200//26 203//26 201//25
f 202//27 205//27 203//26
f 204//28 207//28 205//27
f 206//29 209//29 207//28
f 208//30 211//30 209//29
f 210//31 213//31 211//30
f 212//32 215//32 213//31
f 214//33 217//33 215//32
f 216//34 219//34 217//33
f 218//35 221//35 219//34
f 220//36 223//36 221//35
f 222//37 225//37 223//36
f 224//38 227//38 225//37
f 226//39 229//39 227//38
f 228//40 231//40 229//39
f 230//41 233//41 231//40
f 232//42 235//42 233//41
f 234//43 237//43 235//42
f 236//44 239//44 237//43
f 238//45 241//45 239//44
f 240//46 243//46 241//45
f 242//47 245//47 243//46
f 244//48 247//48 245//47
f 246//49 249//49 247//48
f 248//50 251//50 249//49
f 250//51 253//51 251//50
f 252//52 255//52 253//51
f 254//53 257//53 255//52
f 256//54 259//54 257//53
f 258//55 261//55 259//54
f 260//56 263//56 261//55
f 262//57 265//57 263//56
f 264//58 267//58 265//57
f 266//59 269//59 267//58
f 268//60 271//60 269//59
f 270//61 273//61 271//60
f 272//62 275//62 273//61
f 274//63 277//63 275//62
f 276//64 279//64 277//63
f 278//65 281//65 279//64
f 280//66 283//66 281//65
f 282//67 285//67 283//66
f 284//68 287//68 285//67
f 286//69 289//69 287//68
f 288//70 291//70 289//69
f 290//71 293//71 291//70
f 292//72 295//72 293//71
f 294//73 297//73 295//72
f 296//74 299//74 297//73
f 298//75 301//75 299//74
f 300//76 303//76 301//75
f 302//77 305//77 303//76
f 304//78 307//78 305//77
f 306//79 309//79 307//78
f 308//80 311//80 309//79
f 310//4 312//4 311//80
f 159//4 158//4 312//4
