# Blender v2.79 (sub 0) OBJ File: ''
# www.blender.org
mtllib number.mtl
o Text_CUText
v 0.094000 0.029000 0.100000
v 0.344000 0.589000 0.100000
v 0.049000 0.589000 0.100000
v 0.049000 0.682000 0.100000
v 0.490000 0.682000 0.100000
v 0.181000 -0.009000 0.100000
v 0.094000 0.029000 -0.100000
v 0.344000 0.589000 -0.100000
v 0.049000 0.589000 -0.100000
v 0.049000 0.682000 -0.100000
v 0.490000 0.682000 -0.100000
v 0.181000 -0.009000 -0.100000
v 0.094000 0.029000 -0.100000
v 0.094000 0.029000 0.100000
v 0.344000 0.589000 -0.100000
v 0.344000 0.589000 0.100000
v 0.049000 0.589000 -0.100000
v 0.049000 0.589000 0.100000
v 0.049000 0.682000 -0.100000
v 0.049000 0.682000 0.100000
v 0.490000 0.682000 -0.100000
v 0.490000 0.682000 0.100000
v 0.181000 -0.009000 -0.100000
v 0.181000 -0.009000 0.100000
vn 0.0000 -0.0000 1.0000
vn 0.0000 0.0000 -1.0000
vn -0.8389 -0.5442 0.0000
vn -0.9325 -0.3612 0.0000
vn -0.7071 -0.7071 0.0000
vn -0.7071 0.7071 0.0000
vn 0.8391 0.5439 0.0000
vn 0.3609 -0.9326 0.0000
usemtl (null)
s off
f 3//1 5//1 4//1
f 3//1 2//1 5//1
f 2//1 6//1 5//1
f 1//1 6//1 2//1
f 11//2 9//2 10//2
f 8//2 9//2 11//2
f 12//2 8//2 11//2
f 12//2 7//2 8//2
s 1
f 16//3 13//4 14//4
f 18//5 15//3 16//3
f 20//6 17//5 18//5
f 22//7 19//6 20//6
f 24//8 21//7 22//7
f 14//4 23//8 24//8
f 16//3 15//3 13//4
f 18//5 17//5 15//3
f 20//6 19//6 17//5
f 22//7 21//7 19//6
f 24//8 23//8 21//7
f 14//4 13//4 23//8
