# Blender v2.79 (sub 0) OBJ File: ''
# www.blender.org
mtllib x2.mtl
o Text_CUText
v 0.534000 -0.000000 0.100000
v 0.534000 0.007000 0.100000
v 0.553311 0.030404 0.100000
v 0.573569 0.054981 0.100000
v 0.594516 0.080531 0.100000
v 0.615889 0.106852 0.100000
v 0.637429 0.133742 0.100000
v 0.658875 0.161000 0.100000
v 0.679967 0.188425 0.100000
v 0.700444 0.215815 0.100000
v 0.720047 0.242969 0.100000
v 0.738514 0.269685 0.100000
v 0.755585 0.295763 0.100000
v 0.771000 0.321000 0.100000
v 0.778667 0.334338 0.100000
v 0.785667 0.346954 0.100000
v 0.792000 0.359000 0.100000
v 0.797667 0.370630 0.100000
v 0.802667 0.381995 0.100000
v 0.807000 0.393250 0.100000
v 0.810667 0.404546 0.100000
v 0.813667 0.416037 0.100000
v 0.816000 0.427875 0.100000
v 0.817667 0.440213 0.100000
v 0.818667 0.453204 0.100000
v 0.819000 0.467000 0.100000
v 0.817977 0.485274 0.100000
v 0.814986 0.502523 0.100000
v 0.810141 0.518641 0.100000
v 0.803556 0.533518 0.100000
v 0.795346 0.547049 0.100000
v 0.785625 0.559125 0.100000
v 0.774509 0.569638 0.100000
v 0.762111 0.578481 0.100000
v 0.748547 0.585547 0.100000
v 0.733931 0.590727 0.100000
v 0.718377 0.593914 0.100000
v 0.702000 0.595000 0.100000
v 0.689727 0.594527 0.100000
v 0.677398 0.593046 0.100000
v 0.665000 0.590469 0.100000
v 0.652519 0.586704 0.100000
v 0.639940 0.581661 0.100000
v 0.627250 0.575250 0.100000
v 0.614435 0.567381 0.100000
v 0.601481 0.557963 0.100000
v 0.588375 0.546906 0.100000
v 0.575102 0.534120 0.100000
v 0.561648 0.519515 0.100000
v 0.548000 0.503000 0.100000
v 0.548000 0.626000 0.100000
v 0.561671 0.636522 0.100000
v 0.575204 0.646093 0.100000
v 0.588625 0.654719 0.100000
v 0.601963 0.662407 0.100000
v 0.615245 0.669166 0.100000
v 0.628500 0.675000 0.100000
v 0.641755 0.679918 0.100000
v 0.655037 0.683926 0.100000
v 0.668375 0.687031 0.100000
v 0.681796 0.689241 0.100000
v 0.695329 0.690561 0.100000
v 0.709000 0.691000 0.100000
v 0.738931 0.689215 0.100000
v 0.767116 0.683972 0.100000
v 0.793391 0.675438 0.100000
v 0.817593 0.663778 0.100000
v 0.839558 0.649160 0.100000
v 0.859125 0.631750 0.100000
v 0.876129 0.611715 0.100000
v 0.890407 0.589222 0.100000
v 0.901797 0.564438 0.100000
v 0.910134 0.537528 0.100000
v 0.915256 0.508660 0.100000
v 0.917000 0.478000 0.100000
v 0.915731 0.450564 0.100000
v 0.911852 0.423509 0.100000
v 0.905250 0.396469 0.100000
v 0.895815 0.369074 0.100000
v 0.883435 0.340957 0.100000
v 0.868000 0.311750 0.100000
v 0.849398 0.281085 0.100000
v 0.827519 0.248593 0.100000
v 0.802250 0.213906 0.100000
v 0.773481 0.176657 0.100000
v 0.741102 0.136478 0.100000
v 0.705000 0.093000 0.100000
v 0.966000 0.093000 0.100000
v 0.966000 -0.000000 0.100000
v 0.500000 -0.000000 0.100000
v 0.386000 -0.000000 0.100000
v 0.245000 0.161000 0.100000
v 0.112000 -0.000000 0.100000
v 0.000000 -0.000000 0.100000
v 0.189000 0.228000 0.100000
v 0.000000 0.449000 0.100000
v 0.112000 0.449000 0.100000
v 0.245000 0.295000 0.100000
v 0.373000 0.449000 0.100000
v 0.487000 0.449000 0.100000
v 0.302000 0.228000 0.100000
v 0.534000 0.000000 -0.100000
v 0.534000 0.007000 -0.100000
v 0.553311 0.030404 -0.100000
v 0.573569 0.054981 -0.100000
v 0.594516 0.080531 -0.100000
v 0.615889 0.106852 -0.100000
v 0.637429 0.133742 -0.100000
v 0.658875 0.161000 -0.100000
v 0.679967 0.188425 -0.100000
v 0.700444 0.215815 -0.100000
v 0.720047 0.242969 -0.100000
v 0.738514 0.269685 -0.100000
v 0.755585 0.295763 -0.100000
v 0.771000 0.321000 -0.100000
v 0.778667 0.334338 -0.100000
v 0.785667 0.346954 -0.100000
v 0.792000 0.359000 -0.100000
v 0.797667 0.370630 -0.100000
v 0.802667 0.381995 -0.100000
v 0.807000 0.393250 -0.100000
v 0.810667 0.404546 -0.100000
v 0.813667 0.416037 -0.100000
v 0.816000 0.427875 -0.100000
v 0.817667 0.440213 -0.100000
v 0.818667 0.453204 -0.100000
v 0.819000 0.467000 -0.100000
v 0.817977 0.485274 -0.100000
v 0.814986 0.502523 -0.100000
v 0.810141 0.518641 -0.100000
v 0.803556 0.533518 -0.100000
v 0.795346 0.547049 -0.100000
v 0.785625 0.559125 -0.100000
v 0.774509 0.569638 -0.100000
v 0.762111 0.578481 -0.100000
v 0.748547 0.585547 -0.100000
v 0.733931 0.590727 -0.100000
v 0.718377 0.593914 -0.100000
v 0.702000 0.595000 -0.100000
v 0.689727 0.594527 -0.100000
v 0.677398 0.593046 -0.100000
v 0.665000 0.590469 -0.100000
v 0.652519 0.586704 -0.100000
v 0.639940 0.581661 -0.100000
v 0.627250 0.575250 -0.100000
v 0.614435 0.567381 -0.100000
v 0.601481 0.557963 -0.100000
v 0.588375 0.546906 -0.100000
v 0.575102 0.534120 -0.100000
v 0.561648 0.519515 -0.100000
v 0.548000 0.503000 -0.100000
v 0.548000 0.626000 -0.100000
v 0.561671 0.636522 -0.100000
v 0.575204 0.646093 -0.100000
v 0.588625 0.654719 -0.100000
v 0.601963 0.662407 -0.100000
v 0.615245 0.669166 -0.100000
v 0.628500 0.675000 -0.100000
v 0.641755 0.679918 -0.100000
v 0.655037 0.683926 -0.100000
v 0.668375 0.687031 -0.100000
v 0.681796 0.689241 -0.100000
v 0.695329 0.690561 -0.100000
v 0.709000 0.691000 -0.100000
v 0.738931 0.689215 -0.100000
v 0.767116 0.683972 -0.100000
v 0.793391 0.675438 -0.100000
v 0.817593 0.663778 -0.100000
v 0.839558 0.649160 -0.100000
v 0.859125 0.631750 -0.100000
v 0.876129 0.611715 -0.100000
v 0.890407 0.589222 -0.100000
v 0.901797 0.564438 -0.100000
v 0.910134 0.537528 -0.100000
v 0.915256 0.508660 -0.100000
v 0.917000 0.478000 -0.100000
v 0.915731 0.450564 -0.100000
v 0.911852 0.423509 -0.100000
v 0.905250 0.396469 -0.100000
v 0.895815 0.369074 -0.100000
v 0.883435 0.340957 -0.100000
v 0.868000 0.311750 -0.100000
v 0.849398 0.281085 -0.100000
v 0.827519 0.248593 -0.100000
v 0.802250 0.213906 -0.100000
v 0.773481 0.176657 -0.100000
v 0.741102 0.136478 -0.100000
v 0.705000 0.093000 -0.100000
v 0.966000 0.093000 -0.100000
v 0.966000 0.000000 -0.100000
v 0.500000 0.000000 -0.100000
v 0.386000 0.000000 -0.100000
v 0.245000 0.161000 -0.100000
v 0.112000 0.000000 -0.100000
v 0.000000 0.000000 -0.100000
v 0.189000 0.228000 -0.100000
v 0.000000 0.449000 -0.100000
v 0.112000 0.449000 -0.100000
v 0.245000 0.295000 -0.100000
v 0.373000 0.449000 -0.100000
v 0.487000 0.449000 -0.100000
v 0.302000 0.228000 -0.100000
v 0.500000 0.000000 -0.100000
v 0.500000 -0.000000 0.100000
v 0.386000 0.000000 -0.100000
v 0.386000 -0.000000 0.100000
v 0.245000 0.161000 -0.100000
v 0.245000 0.161000 0.100000
v 0.112000 0.000000 -0.100000
v 0.112000 -0.000000 0.100000
v 0.000000 0.000000 -0.100000
v 0.000000 -0.000000 0.100000
v 0.189000 0.228000 -0.100000
v 0.189000 0.228000 0.100000
v 0.000000 0.449000 -0.100000
v 0.000000 0.449000 0.100000
v 0.112000 0.449000 -0.100000
v 0.112000 0.449000 0.100000
v 0.245000 0.295000 -0.100000
v 0.245000 0.295000 0.100000
v 0.373000 0.449000 -0.100000
v 0.373000 0.449000 0.100000
v 0.487000 0.449000 -0.100000
v 0.487000 0.449000 0.100000
v 0.302000 0.228000 -0.100000
v 0.302000 0.228000 0.100000
v 0.534000 0.000000 -0.100000
v 0.534000 -0.000000 0.100000
v 0.534000 0.007000 -0.100000
v 0.534000 0.007000 0.100000
v 0.553311 0.030404 -0.100000
v 0.553311 0.030404 0.100000
v 0.573569 0.054981 -0.100000
v 0.573569 0.054981 0.100000
v 0.594516 0.080531 -0.100000
v 0.594516 0.080531 0.100000
v 0.615889 0.106852 -0.100000
v 0.615889 0.106852 0.100000
v 0.637429 0.133742 -0.100000
v 0.637429 0.133742 0.100000
v 0.658875 0.161000 -0.100000
v 0.658875 0.161000 0.100000
v 0.679967 0.188425 -0.100000
v 0.679967 0.188425 0.100000
v 0.700444 0.215815 -0.100000
v 0.700444 0.215815 0.100000
v 0.720047 0.242969 -0.100000
v 0.720047 0.242969 0.100000
v 0.738514 0.269685 -0.100000
v 0.738514 0.269685 0.100000
v 0.755585 0.295763 -0.100000
v 0.755585 0.295763 0.100000
v 0.771000 0.321000 -0.100000
v 0.771000 0.321000 0.100000
v 0.778667 0.334338 -0.100000
v 0.778667 0.334338 0.100000
v 0.785667 0.346954 -0.100000
v 0.785667 0.346954 0.100000
v 0.792000 0.359000 -0.100000
v 0.792000 0.359000 0.100000
v 0.797667 0.370630 -0.100000
v 0.797667 0.370630 0.100000
v 0.802667 0.381995 -0.100000
v 0.802667 0.381995 0.100000
v 0.807000 0.393250 -0.100000
v 0.807000 0.393250 0.100000
v 0.810667 0.404546 -0.100000
v 0.810667 0.404546 0.100000
v 0.813667 0.416037 -0.100000
v 0.813667 0.416037 0.100000
v 0.816000 0.427875 -0.100000
v 0.816000 0.427875 0.100000
v 0.817667 0.440213 -0.100000
v 0.817667 0.440213 0.100000
v 0.818667 0.453204 -0.100000
v 0.818667 0.453204 0.100000
v 0.819000 0.467000 -0.100000
v 0.819000 0.467000 0.100000
v 0.817977 0.485274 -0.100000
v 0.817977 0.485274 0.100000
v 0.814986 0.502523 -0.100000
v 0.814986 0.502523 0.100000
v 0.810141 0.518641 -0.100000
v 0.810141 0.518641 0.100000
v 0.803556 0.533518 -0.100000
v 0.803556 0.533518 0.100000
v 0.795346 0.547049 -0.100000
v 0.795346 0.547049 0.100000
v 0.785625 0.559125 -0.100000
v 0.785625 0.559125 0.100000
v 0.774509 0.569638 -0.100000
v 0.774509 0.569638 0.100000
v 0.762111 0.578481 -0.100000
v 0.762111 0.578481 0.100000
v 0.748547 0.585547 -0.100000
v 0.748547 0.585547 0.100000
v 0.733931 0.590727 -0.100000
v 0.733931 0.590727 0.100000
v 0.718377 0.593914 -0.100000
v 0.718377 0.593914 0.100000
v 0.702000 0.595000 -0.100000
v 0.702000 0.595000 0.100000
v 0.689727 0.594527 -0.100000
v 0.689727 0.594527 0.100000
v 0.677398 0.593046 -0.100000
v 0.677398 0.593046 0.100000
v 0.665000 0.590469 -0.100000
v 0.665000 0.590469 0.100000
v 0.652519 0.586704 -0.100000
v 0.652519 0.586704 0.100000
v 0.639940 0.581661 -0.100000
v 0.639940 0.581661 0.100000
v 0.627250 0.575250 -0.100000
v 0.627250 0.575250 0.100000
v 0.614435 0.567381 -0.100000
v 0.614435 0.567381 0.100000
v 0.601481 0.557963 -0.100000
v 0.601481 0.557963 0.100000
v 0.588375 0.546906 -0.100000
v 0.588375 0.546906 0.100000
v 0.575102 0.534120 -0.100000
v 0.575102 0.534120 0.100000
v 0.561648 0.519515 -0.100000
v 0.561648 0.519515 0.100000
v 0.548000 0.503000 -0.100000
v 0.548000 0.503000 0.100000
v 0.548000 0.626000 -0.100000
v 0.548000 0.626000 0.100000
v 0.561671 0.636522 -0.100000
v 0.561671 0.636522 0.100000
v 0.575204 0.646093 -0.100000
v 0.575204 0.646093 0.100000
v 0.588625 0.654719 -0.100000
v 0.588625 0.654719 0.100000
v 0.601963 0.662407 -0.100000
v 0.601963 0.662407 0.100000
v 0.615245 0.669166 -0.100000
v 0.615245 0.669166 0.100000
v 0.628500 0.675000 -0.100000
v 0.628500 0.675000 0.100000
v 0.641755 0.679918 -0.100000
v 0.641755 0.679918 0.100000
v 0.655037 0.683926 -0.100000
v 0.655037 0.683926 0.100000
v 0.668375 0.687031 -0.100000
v 0.668375 0.687031 0.100000
v 0.681796 0.689241 -0.100000
v 0.681796 0.689241 0.100000
v 0.695329 0.690561 -0.100000
v 0.695329 0.690561 0.100000
v 0.709000 0.691000 -0.100000
v 0.709000 0.691000 0.100000
v 0.738931 0.689215 -0.100000
v 0.738931 0.689215 0.100000
v 0.767116 0.683972 -0.100000
v 0.767116 0.683972 0.100000
v 0.793391 0.675438 -0.100000
v 0.793391 0.675438 0.100000
v 0.817593 0.663778 -0.100000
v 0.817593 0.663778 0.100000
v 0.839558 0.649160 -0.100000
v 0.839558 0.649160 0.100000
v 0.859125 0.631750 -0.100000
v 0.859125 0.631750 0.100000
v 0.876129 0.611715 -0.100000
v 0.876129 0.611715 0.100000
v 0.890407 0.589222 -0.100000
v 0.890407 0.589222 0.100000
v 0.901797 0.564438 -0.100000
v 0.901797 0.564438 0.100000
v 0.910134 0.537528 -0.100000
v 0.910134 0.537528 0.100000
v 0.915256 0.508660 -0.100000
v 0.915256 0.508660 0.100000
v 0.917000 0.478000 -0.100000
v 0.917000 0.478000 0.100000
v 0.915731 0.450564 -0.100000
v 0.915731 0.450564 0.100000
v 0.911852 0.423509 -0.100000
v 0.911852 0.423509 0.100000
v 0.905250 0.396469 -0.100000
v 0.905250 0.396469 0.100000
v 0.895815 0.369074 -0.100000
v 0.895815 0.369074 0.100000
v 0.883435 0.340957 -0.100000
v 0.883435 0.340957 0.100000
v 0.868000 0.311750 -0.100000
v 0.868000 0.311750 0.100000
v 0.849398 0.281085 -0.100000
v 0.849398 0.281085 0.100000
v 0.827519 0.248593 -0.100000
v 0.827519 0.248593 0.100000
v 0.802250 0.213906 -0.100000
v 0.802250 0.213906 0.100000
v 0.773481 0.176657 -0.100000
v 0.773481 0.176657 0.100000
v 0.741102 0.136478 -0.100000
v 0.741102 0.136478 0.100000
v 0.705000 0.093000 -0.100000
v 0.705000 0.093000 0.100000
v 0.966000 0.093000 -0.100000
v 0.966000 0.093000 0.100000
v 0.966000 0.000000 -0.100000
v 0.966000 -0.000000 0.100000
vn 0.0000 0.0000 1.0000
vn -0.0000 0.0000 -1.0000
vn 0.9098 -0.4149 0.0000
vn -0.4130 -0.9107 0.0000
vn 0.0144 -0.9999 0.0000
vn 0.4261 -0.9047 0.0000
vn -0.9050 -0.4253 0.0000
vn -1.0000 -0.0077 0.0000
vn -0.9083 0.4183 0.0000
vn 0.4162 0.9093 0.0000
vn -0.0094 0.9999 0.0000
vn -0.4247 0.9053 0.0000
vn 0.9060 0.4231 0.0000
vn 0.9999 0.0091 0.0000
vn -0.7071 -0.7071 0.0000
vn -0.9411 0.3381 0.0000
vn -0.7715 0.6362 0.0000
vn -0.7725 0.6350 0.0000
vn -0.7748 0.6322 0.0000
vn -0.7784 0.6278 0.0000
vn -0.7832 0.6218 0.0000
vn -0.7893 0.6140 0.0000
vn -0.7968 0.6042 0.0000
vn -0.8059 0.5921 0.0000
vn -0.8167 0.5770 0.0000
vn -0.8297 0.5582 0.0000
vn -0.8451 0.5345 0.0000
vn -0.8603 0.5098 0.0000
vn -0.8707 0.4918 0.0000
vn -0.8798 0.4753 0.0000
vn -0.8921 0.4517 0.0000
vn -0.9073 0.4204 0.0000
vn -0.9245 0.3811 0.0000
vn -0.9425 0.3341 0.0000
vn -0.9597 0.2808 0.0000
vn -0.9748 0.2231 0.0000
vn -0.9865 0.1637 0.0000
vn -0.9944 0.1053 0.0000
vn -0.9987 0.0504 0.0000
vn -0.9998 -0.0159 0.0000
vn -0.9935 -0.1135 0.0000
vn -0.9732 -0.2298 0.0000
vn -0.9379 -0.3470 0.0000
vn -0.8865 -0.4627 0.0000
vn -0.8187 -0.5741 0.0000
vn -0.7347 -0.6783 0.0000
vn -0.6354 -0.7721 0.0000
vn -0.5226 -0.8526 0.0000
vn -0.3990 -0.9170 0.0000
vn -0.2680 -0.9634 0.0000
vn -0.1338 -0.9910 0.0000
vn -0.0138 -0.9999 0.0000
vn 0.0789 -0.9969 0.0000
vn 0.1615 -0.9868 0.0000
vn 0.2464 -0.9691 0.0000
vn 0.3308 -0.9437 0.0000
vn 0.4119 -0.9112 0.0000
vn 0.4875 -0.8731 0.0000
vn 0.5561 -0.8311 0.0000
vn 0.6168 -0.7871 0.0000
vn 0.6696 -0.7427 0.0000
vn 0.7149 -0.6991 0.0000
vn 0.7534 -0.6575 0.0000
vn -0.3385 -0.9409 0.0000
vn -0.8972 0.4416 0.0000
vn -0.5938 0.8046 0.0000
vn -0.5592 0.8290 0.0000
vn -0.5202 0.8540 0.0000
vn -0.4766 0.8791 0.0000
vn -0.4283 0.9036 0.0000
vn -0.3755 0.9268 0.0000
vn -0.3185 0.9479 0.0000
vn -0.2579 0.9662 0.0000
vn -0.1947 0.9808 0.0000
vn -0.1298 0.9915 0.0000
vn -0.0646 0.9979 0.0000
vn 0.0137 0.9999 0.0000
vn 0.1214 0.9926 0.0000
vn 0.2464 0.9691 0.0000
vn 0.3723 0.9281 0.0000
vn 0.4952 0.8688 0.0000
vn 0.6109 0.7917 0.0000
vn 0.7153 0.6988 0.0000
vn 0.8052 0.5929 0.0000
vn 0.8784 0.4778 0.0000
vn 0.9339 0.3575 0.0000
vn 0.9718 0.2358 0.0000
vn 0.9933 0.1159 0.0000
vn 1.0000 0.0053 0.0000
vn 0.9955 -0.0941 0.0000
vn 0.9818 -0.1898 0.0000
vn 0.9595 -0.2817 0.0000
vn 0.9312 -0.3646 0.0000
vn 0.9002 -0.4354 0.0000
vn 0.8699 -0.4931 0.0000
vn 0.8425 -0.5387 0.0000
vn 0.8190 -0.5738 0.0000
vn 0.7999 -0.6001 0.0000
vn 0.7851 -0.6194 0.0000
vn 0.7740 -0.6332 0.0000
vn 0.9052 0.4249 0.0000
vn 0.7071 0.7071 0.0000
vn 0.7071 -0.7071 0.0000
usemtl Material.001
s off
f 62//1 64//1 63//1
f 61//1 64//1 62//1
f 60//1 64//1 61//1
f 60//1 65//1 64//1
f 59//1 65//1 60//1
f 59//1 66//1 65//1
f 58//1 66//1 59//1
f 57//1 66//1 58//1
f 57//1 67//1 66//1
f 56//1 67//1 57//1
f 55//1 67//1 56//1
f 55//1 68//1 67//1
f 54//1 68//1 55//1
f 53//1 68//1 54//1
f 53//1 69//1 68//1
f 52//1 69//1 53//1
f 51//1 69//1 52//1
f 51//1 70//1 69//1
f 50//1 49//1 51//1
f 49//1 48//1 51//1
f 48//1 47//1 51//1
f 47//1 46//1 51//1
f 46//1 45//1 51//1
f 45//1 44//1 51//1
f 44//1 43//1 51//1
f 43//1 42//1 51//1
f 42//1 41//1 51//1
f 41//1 40//1 51//1
f 40//1 39//1 51//1
f 39//1 70//1 51//1
f 39//1 38//1 70//1
f 38//1 71//1 70//1
f 37//1 71//1 38//1
f 36//1 71//1 37//1
f 35//1 71//1 36//1
f 35//1 72//1 71//1
f 34//1 72//1 35//1
f 33//1 72//1 34//1
f 32//1 72//1 33//1
f 32//1 73//1 72//1
f 31//1 73//1 32//1
f 30//1 73//1 31//1
f 30//1 74//1 73//1
f 29//1 74//1 30//1
f 28//1 74//1 29//1
f 28//1 75//1 74//1
f 27//1 75//1 28//1
f 26//1 75//1 27//1
f 26//1 76//1 75//1
f 25//1 76//1 26//1
f 24//1 76//1 25//1
f 24//1 77//1 76//1
f 23//1 77//1 24//1
f 22//1 77//1 23//1
f 22//1 78//1 77//1
f 21//1 78//1 22//1
f 20//1 78//1 21//1
f 20//1 79//1 78//1
f 19//1 79//1 20//1
f 18//1 79//1 19//1
f 17//1 79//1 18//1
f 17//1 80//1 79//1
f 16//1 80//1 17//1
f 15//1 80//1 16//1
f 15//1 81//1 80//1
f 14//1 81//1 15//1
f 13//1 81//1 14//1
f 13//1 82//1 81//1
f 12//1 82//1 13//1
f 12//1 83//1 82//1
f 11//1 83//1 12//1
f 11//1 84//1 83//1
f 10//1 84//1 11//1
f 9//1 84//1 10//1
f 9//1 85//1 84//1
f 8//1 85//1 9//1
f 8//1 86//1 85//1
f 7//1 86//1 8//1
f 7//1 87//1 86//1
f 6//1 87//1 7//1
f 5//1 87//1 6//1
f 5//1 88//1 87//1
f 5//1 89//1 88//1
f 4//1 89//1 5//1
f 3//1 89//1 4//1
f 2//1 89//1 3//1
f 1//1 89//1 2//1
f 95//1 97//1 96//1
f 95//1 98//1 97//1
f 98//1 100//1 99//1
f 98//1 101//1 100//1
f 95//1 101//1 98//1
f 94//1 101//1 95//1
f 94//1 92//1 101//1
f 92//1 90//1 101//1
f 94//1 93//1 92//1
f 91//1 90//1 92//1
f 165//2 163//2 164//2
f 165//2 162//2 163//2
f 165//2 161//2 162//2
f 166//2 161//2 165//2
f 166//2 160//2 161//2
f 167//2 160//2 166//2
f 167//2 159//2 160//2
f 167//2 158//2 159//2
f 168//2 158//2 167//2
f 168//2 157//2 158//2
f 168//2 156//2 157//2
f 169//2 156//2 168//2
f 169//2 155//2 156//2
f 169//2 154//2 155//2
f 170//2 154//2 169//2
f 170//2 153//2 154//2
f 170//2 152//2 153//2
f 171//2 152//2 170//2
f 150//2 151//2 152//2
f 149//2 150//2 152//2
f 148//2 149//2 152//2
f 147//2 148//2 152//2
f 146//2 147//2 152//2
f 145//2 146//2 152//2
f 144//2 145//2 152//2
f 143//2 144//2 152//2
f 142//2 143//2 152//2
f 141//2 142//2 152//2
f 140//2 141//2 152//2
f 171//2 140//2 152//2
f 139//2 140//2 171//2
f 172//2 139//2 171//2
f 172//2 138//2 139//2
f 172//2 137//2 138//2
f 172//2 136//2 137//2
f 173//2 136//2 172//2
f 173//2 135//2 136//2
f 173//2 134//2 135//2
f 173//2 133//2 134//2
f 174//2 133//2 173//2
f 174//2 132//2 133//2
f 174//2 131//2 132//2
f 175//2 131//2 174//2
f 175//2 130//2 131//2
f 175//2 129//2 130//2
f 176//2 129//2 175//2
f 176//2 128//2 129//2
f 176//2 127//2 128//2
f 177//2 127//2 176//2
f 177//2 126//2 127//2
f 177//2 125//2 126//2
f 178//2 125//2 177//2
f 178//2 124//2 125//2
f 178//2 123//2 124//2
f 179//2 123//2 178//2
f 179//2 122//2 123//2
f 179//2 121//2 122//2
f 180//2 121//2 179//2
f 180//2 120//2 121//2
f 180//2 119//2 120//2
f 180//2 118//2 119//2
f 181//2 118//2 180//2
f 181//2 117//2 118//2
f 181//2 116//2 117//2
f 182//2 116//2 181//2
f 182//2 115//2 116//2
f 182//2 114//2 115//2
f 183//2 114//2 182//2
f 183//2 113//2 114//2
f 184//2 113//2 183//2
f 184//2 112//2 113//2
f 185//2 112//2 184//2
f 185//2 111//2 112//2
f 185//2 110//2 111//2
f 186//2 110//2 185//2
f 186//2 109//2 110//2
f 187//2 109//2 186//2
f 187//2 108//2 109//2
f 188//2 108//2 187//2
f 188//2 107//2 108//2
f 188//2 106//2 107//2
f 189//2 106//2 188//2
f 190//2 106//2 189//2
f 190//2 105//2 106//2
f 190//2 104//2 105//2
f 190//2 103//2 104//2
f 190//2 102//2 103//2
f 198//2 196//2 197//2
f 199//2 196//2 198//2
f 201//2 199//2 200//2
f 202//2 199//2 201//2
f 202//2 196//2 199//2
f 202//2 195//2 196//2
f 193//2 195//2 202//2
f 191//2 193//2 202//2
f 194//2 195//2 193//2
f 191//2 192//2 193//2
s 1
f 204//3 206//4 205//4 203//3
f 206//4 208//5 207//5 205//4
f 208//5 210//6 209//6 207//5
f 210//6 212//7 211//7 209//6
f 212//7 214//8 213//8 211//7
f 214//8 216//9 215//9 213//8
f 216//9 218//10 217//10 215//9
f 218//10 220//11 219//11 217//10
f 220//11 222//12 221//12 219//11
f 222//12 224//13 223//13 221//12
f 224//13 226//14 225//14 223//13
f 226//14 204//3 203//3 225//14
f 228//15 230//16 229//16 227//15
f 230//16 232//17 231//17 229//16
f 232//17 234//18 233//18 231//17
f 234//18 236//19 235//19 233//18
f 236//19 238//20 237//20 235//19
f 238//20 240//21 239//21 237//20
f 240//21 242//22 241//22 239//21
f 242//22 244//23 243//23 241//22
f 244//23 246//24 245//24 243//23
f 246//24 248//25 247//25 245//24
f 248//25 250//26 249//26 247//25
f 250//26 252//27 251//27 249//26
f 252//27 254//28 253//28 251//27
f 254//28 256//29 255//29 253//28
f 256//29 258//30 257//30 255//29
f 258//30 260//31 259//31 257//30
f 260//31 262//32 261//32 259//31
f 262//32 264//33 263//33 261//32
f 264//33 266//34 265//34 263//33
f 266//34 268//35 267//35 265//34
f 268//35 270//36 269//36 267//35
f 270//36 272//37 271//37 269//36
f 272//37 274//38 273//38 271//37
f 274//38 276//39 275//39 273//38
f 276//39 278//40 277//40 275//39
f 278//40 280//41 279//41 277//40
f 280//41 282//42 281//42 279//41
f 282//42 284//43 283//43 281//42
f 284//43 286//44 285//44 283//43
f 286//44 288//45 287//45 285//44
f 288//45 290//46 289//46 287//45
f 290//46 292//47 291//47 289//46
f 292//47 294//48 293//48 291//47
f 294//48 296//49 295//49 293//48
f 296//49 298//50 297//50 295//49
f 298//50 300//51 299//51 297//50
f 300//51 302//52 301//52 299//51
f 302//52 304//53 303//53 301//52
f 304//53 306//54 305//54 303//53
f 306//54 308//55 307//55 305//54
f 308//55 310//56 309//56 307//55
f 310//56 312//57 311//57 309//56
f 312//57 314//58 313//58 311//57
f 314//58 316//59 315//59 313//58
f 316//59 318//60 317//60 315//59
f 318//60 320//61 319//61 317//60
f 320//61 322//62 321//62 319//61
f 322//62 324//63 323//63 321//62
f 324//63 326//64 325//64 323//63
f 326//64 328//65 327//65 325//64
f 328//65 330//66 329//66 327//65
f 330//66 332//67 331//67 329//66
f 332//67 334//68 333//68 331//67
f 334//68 336//69 335//69 333//68
f 336//69 338//70 337//70 335//69
f 338//70 340//71 339//71 337//70
f 340//71 342//72 341//72 339//71
f 342//72 344//73 343//73 341//72
f 344//73 346//74 345//74 343//73
f 346//74 348//75 347//75 345//74
f 348//75 350//76 349//76 347//75
f 350//76 352//77 351//77 349//76
f 352//77 354//78 353//78 351//77
f 354//78 356//79 355//79 353//78
f 356//79 358//80 357//80 355//79
f 358//80 360//81 359//81 357//80
f 360//81 362//82 361//82 359//81
f 362//82 364//83 363//83 361//82
f 364//83 366//84 365//84 363//83
f 366//84 368//85 367//85 365//84
f 368//85 370//86 369//86 367//85
f 370//86 372//87 371//87 369//86
f 372//87 374//88 373//88 371//87
f 374//88 376//89 375//89 373//88
f 376//89 378//90 377//90 375//89
f 378//90 380//91 379//91 377//90
f 380//91 382//92 381//92 379//91
f 382//92 384//93 383//93 381//92
f 384//93 386//94 385//94 383//93
f 386//94 388//95 387//95 385//94
f 388//95 390//96 389//96 387//95
f 390//96 392//97 391//97 389//96
f 392//97 394//98 393//98 391//97
f 394//98 396//99 395//99 393//98
f 396//99 398//100 397//100 395//99
f 398//100 400//101 399//101 397//100
f 400//101 402//102 401//102 399//101
f 402//102 404//103 403//103 401//102
f 404//103 228//15 227//15 403//103
